<svg width="12" height="12" viewBox="0 0 3.175 3.175" version="1.1" xmlns="http://www.w3.org/2000/svg">
  <g fill="#333" fill-opacity="1" fill-rule="evenodd" stroke-width="1.923">
    <path d="M.529.529h.529v.529H.529zM2.117.529h.529v.529h-.529zM1.058 1.587h.529v.529h-.529z"/>
    <path d="M1.587 1.058h.529v.529h-.529zM2.646 0h.529v.529h-.529zM0 2.646h.529v.529H0zM2.646 1.588h.529v.529h-.529zM1.587 2.646h.529v.529h-.529zM0 1.058h.529v.529H0zM1.058 0h.529v.529h-.529zM2.117 2.117h.529v.529h-.529zM.529 2.117h.529v.529H.529z"/>
  </g>
</svg>
