<svg width="12" height="12" viewBox="0 0 3.175 3.175" version="1.1" xmlns="http://www.w3.org/2000/svg">
  <g fill="#555" fill-opacity="1" fill-rule="evenodd" stroke-width="1.923">
    <path d="M.529 2.646v-.529h.529v.529zM.529 1.058V.529h.529v.529zM1.587 2.117v-.529h.529v.529zM1.058 1.588v-.529h.529v.529zM0 .529V0h.529v.529zM2.646 3.175v-.529h.529v.529zM1.588.529V0h.529v.529zM2.646 1.588v-.529h.529v.529zM1.058 3.175v-.529h.529v.529zM0 2.117v-.529h.529v.529zM2.117 1.058V.529h.529v.529zM2.117 2.646v-.529h.529v.529z"/>
  </g>
</svg>
